<svg xmlns="http://www.w3.org/2000/svg" viewBox="0 0 46.03 39.02"><defs><style>.cls-1{fill:#4b4e6d;}.cls-1,.cls-2,.cls-3{stroke:#000;stroke-miterlimit:10;stroke-width:0.25px;}.cls-2{fill:none;}.cls-3{fill:#7ec4cf;}</style></defs><title>Asset 1</title><g id="Layer_2" data-name="Layer 2"><g id="Layer_2-2" data-name="Layer 2"><path class="cls-1" d="M6.26,2.37c0,.41.07.82.13,1.23A17,17,0,0,0,0,1.77a14.78,14.78,0,0,1,1.5-.07A16.93,16.93,0,0,1,6.26,2.37Z"/><path class="cls-2" d="M15.12,14.15A17.32,17.32,0,0,1,6.9,3.87,17.32,17.32,0,0,1,15.12,14.15Z"/><path class="cls-2" d="M15,24.44A17.32,17.32,0,0,1,6.07,34.58,17.32,17.32,0,0,1,15,24.44Z"/><path class="cls-2" d="M15,24.44A17.32,17.32,0,0,1,6.07,34.58,17.32,17.32,0,0,1,15,24.44Z"/><path class="cls-2" d="M15.12,14.15A17.32,17.32,0,0,1,6.9,3.87,17.32,17.32,0,0,1,15.12,14.15Z"/><path class="cls-1" d="M39.22,35.49a17.3,17.3,0,0,1-11.42-12,15.45,15.45,0,0,1-.43-2.13A17.13,17.13,0,0,1,27.2,19c0-.37,0-.74,0-1.1a16.37,16.37,0,0,0,3.09-1A16.07,16.07,0,0,0,30.2,19a17.33,17.33,0,0,0,.4,3.7,16.05,16.05,0,0,0,.71,2.39,17.34,17.34,0,0,0,7.4,8.82A14.37,14.37,0,0,1,39.22,35.49Z"/><path class="cls-2" d="M38.71,33.92a17.34,17.34,0,0,1-7.4-8.82A17.34,17.34,0,0,1,38.71,33.92Z"/><path class="cls-1" d="M46,36.25a14.78,14.78,0,0,1-1.5.07,17,17,0,0,1-4.86-.7,11.58,11.58,0,0,0-.23-1.31A17,17,0,0,0,46,36.25Z"/><path class="cls-2" d="M40.28,3.28a17.31,17.31,0,0,1-9.54,11.46A17.31,17.31,0,0,1,40.28,3.28Z"/><path class="cls-2" d="M38.71,33.92a17.34,17.34,0,0,1-7.4-8.82A17.34,17.34,0,0,1,38.71,33.92Z"/><path class="cls-2" d="M40.28,3.28a17.31,17.31,0,0,1-9.54,11.46A17.31,17.31,0,0,1,40.28,3.28Z"/><path class="cls-3" d="M40.69,3.1A17.28,17.28,0,0,1,30.33,16.92a16.37,16.37,0,0,1-3.09,1,17,17,0,0,1-3.73.41,16.93,16.93,0,0,1-4.75-.67,15.77,15.77,0,0,0-.28-2.08,17.06,17.06,0,0,0,5,.75,16.87,16.87,0,0,0,4-.47,16.39,16.39,0,0,0,3.25-1.11A17.31,17.31,0,0,0,40.28,3.28C40.42,3.22,40.55,3.15,40.69,3.1Z"/><path class="cls-3" d="M15.63,16.42A17.3,17.3,0,0,1,6.39,3.6c-.06-.41-.11-.82-.13-1.23S6.2,1.47,6.2,1s0-.67,0-1a17.88,17.88,0,0,0,.31,2.44c.1.48.22.95.36,1.42a17.32,17.32,0,0,0,8.22,10.28A17.34,17.34,0,0,1,15.63,16.42Z"/><path class="cls-2" d="M15.12,14.15A17.32,17.32,0,0,1,6.9,3.87,17.32,17.32,0,0,1,15.12,14.15Z"/><path class="cls-2" d="M40.28,3.28a17.31,17.31,0,0,1-9.54,11.46A17.31,17.31,0,0,1,40.28,3.28Z"/><path class="cls-2" d="M40.82,1c0,.37,0,.74,0,1.1a1.14,1.14,0,0,0-.25.06A17.21,17.21,0,0,0,40.79,0C40.81.34,40.82.67,40.82,1Z"/><path class="cls-1" d="M18.82,19a16.42,16.42,0,0,1-.13,2.12,16.25,16.25,0,0,0-3.16,1A17.28,17.28,0,0,0,15.82,19a18.47,18.47,0,0,0-.19-2.59,17.34,17.34,0,0,0-.51-2.27A17.32,17.32,0,0,0,6.9,3.87c-.14-.47-.26-.94-.36-1.42A17.32,17.32,0,0,1,18.48,15.57a15.77,15.77,0,0,1,.28,2.08C18.8,18.1,18.82,18.55,18.82,19Z"/><path class="cls-2" d="M15.12,14.15A17.32,17.32,0,0,1,6.9,3.87,17.32,17.32,0,0,1,15.12,14.15Z"/><path class="cls-1" d="M46,1.77A17.19,17.19,0,0,0,40.69,3.1c-.14,0-.27.12-.41.18a17.31,17.31,0,0,0-9.54,11.46,16.39,16.39,0,0,1-3.25,1.11,17.3,17.3,0,0,1,13-13.68,1.14,1.14,0,0,1,.25-.06,17,17,0,0,1,3.73-.41A14.78,14.78,0,0,1,46,1.77Z"/><path class="cls-2" d="M40.28,3.28a17.31,17.31,0,0,1-9.54,11.46A17.31,17.31,0,0,1,40.28,3.28Z"/><path class="cls-2" d="M15,24.44A17.32,17.32,0,0,1,6.07,34.58,17.32,17.32,0,0,1,15,24.44Z"/><path class="cls-2" d="M38.71,33.92a17.34,17.34,0,0,1-7.4-8.82A17.34,17.34,0,0,1,38.71,33.92Z"/><path class="cls-3" d="M27.8,23.53a17.29,17.29,0,0,0-9.5-.31A16.74,16.74,0,0,0,15,24.44,17.32,17.32,0,0,0,6.07,34.58c-.19.1-.39.19-.58.27a17.31,17.31,0,0,1,10-12.68,16.25,16.25,0,0,1,3.16-1,17.2,17.2,0,0,1,3.82-.43,17,17,0,0,1,4.86.7A15.45,15.45,0,0,0,27.8,23.53Z"/><path class="cls-1" d="M18.3,23.22A17.31,17.31,0,0,1,5.72,35.8a2.74,2.74,0,0,1-.39.09,17.2,17.2,0,0,1-3.82.43A14.78,14.78,0,0,1,0,36.25a17,17,0,0,0,5.48-1.4c.19-.08.39-.17.58-.27A17.32,17.32,0,0,0,15,24.44,16.74,16.74,0,0,1,18.3,23.22Z"/><path class="cls-2" d="M5.33,35.89a2.74,2.74,0,0,0,.39-.09A17,17,0,0,0,5.23,39c0-.33,0-.66,0-1A16.42,16.42,0,0,1,5.33,35.89Z"/><path class="cls-2" d="M15,24.44A17.32,17.32,0,0,1,6.07,34.58,17.32,17.32,0,0,1,15,24.44Z"/><path class="cls-2" d="M38.71,33.92a17.34,17.34,0,0,1-7.4-8.82A17.34,17.34,0,0,1,38.71,33.92Z"/><path class="cls-3" d="M39.82,38c0,.34,0,.67,0,1a17,17,0,0,0-.57-3.52,14.37,14.37,0,0,0-.51-1.57,17.34,17.34,0,0,0-7.4-8.82,16.05,16.05,0,0,1-.71-2.39,17.26,17.26,0,0,1,8.82,11.6,11.58,11.58,0,0,1,.23,1.31A17.13,17.13,0,0,1,39.82,38Z"/></g></g></svg>